# xmcd CD database file
#
# Track frame offsets:
#	150
#	28016
#	56960
#	71674
#	93092
#	96800
#	102533
#	108398
#	111695
#	130515
#	152933
#	168010
#	181878
#	208836
#	230824
#
# Disc length: 3320 seconds
#
# Revision: 0
# Processed by: cddbd v1.5PL3 Copyright (c) Steve Scherf et al.
# Submitted via: CDex 1.51
#
DISCID=d50cf60f
DTITLE=lars-erik norrström trio - vogel
DYEAR=2003
DGENRE=Jazz
TTITLE0=June
TTITLE1=Hologram
TTITLE2=New Hope
TTITLE3=Reflections
TTITLE4=Vogel II
TTITLE5=Vogel XIV
TTITLE6=Vogel III
TTITLE7=Vogel V
TTITLE8=Installation III
TTITLE9=Dirge
TTITLE10=Ice Flowers
TTITLE11=Piano Surprise
TTITLE12=Saknad
TTITLE13=It's a long way, to Väse
TTITLE14=Hannele's Sea
EXTD=YEAR: 2003
EXTT0=
EXTT1=
EXTT2=
EXTT3=
EXTT4=
EXTT5=
EXTT6=
EXTT7=
EXTT8=
EXTT9=
EXTT10=
EXTT11=
EXTT12=
EXTT13=
EXTT14=
PLAYORDER=
